<svg width="180" height="180" viewBox="0 0 180 180" fill="none" xmlns="http://www.w3.org/2000/svg">
<rect width="180" height="180" rx="44" fill="url(#paint0_linear_24_76)"/>
<path d="M54.0001 75.0658C54.0001 73.7264 54.3945 72.4171 55.1335 71.3036C55.8725 70.1901 56.9228 69.3224 58.1515 68.8102C59.3803 68.2981 60.7322 68.1646 62.0363 68.4266C63.3404 68.6885 64.5381 69.3342 65.4777 70.282C66.4174 71.2297 67.0568 72.4369 67.3151 73.7508C67.5734 75.0646 67.439 76.4262 66.9288 77.6631C66.4187 78.9 65.5557 79.9567 64.4492 80.6994C63.3426 81.4422 62.0421 81.8377 60.7124 81.8359C58.9313 81.8334 57.224 81.119 55.9655 79.8497C54.707 78.5803 54.0001 76.8597 54.0001 75.0658ZM51.6948 115.164C46.3916 110.78 41.5377 105.872 37.2055 100.514C41.6422 95.55 46.4624 90.9476 51.6207 86.7502C51.8809 86.5347 52.0964 86.2696 52.2549 85.9702C52.4134 85.6708 52.5117 85.3429 52.5444 85.0052C52.5771 84.6675 52.5434 84.3266 52.4453 84.002C52.3471 83.6774 52.1865 83.3755 51.9725 83.1134C51.7585 82.8513 51.4954 82.6343 51.1981 82.4747C50.9009 82.315 50.5753 82.2159 50.24 82.183C49.9047 82.1501 49.5663 82.1841 49.244 82.2829C48.9217 82.3817 48.622 82.5435 48.3618 82.759C43.2927 86.8984 38.5334 91.4085 34.1225 96.2525C29.697 89.4825 28.2064 83.6729 30.3544 79.9429C32.5023 76.2128 38.1128 74.5902 46.3712 75.0845C47.0471 75.1199 47.7094 74.8847 48.2139 74.4304C48.7184 73.976 49.0241 73.3392 49.0644 72.6588C49.1047 71.9783 48.8763 71.3094 48.4291 70.7978C47.9819 70.2863 47.352 69.9735 46.6768 69.9277C36.2334 69.3029 29.086 71.8673 25.9011 77.3878C23.9198 80.8567 22.744 87.0579 28.4657 96.8959C29.123 98.0336 29.8637 99.1992 30.6784 100.374C22.7255 110.445 20.0406 119.155 23.4477 125.095C26.0215 129.58 31.5672 131.865 39.7052 131.865C42.7357 131.843 45.7599 131.585 48.7506 131.091C49.4234 130.985 50.0267 130.614 50.4278 130.059C50.8289 129.505 50.9949 128.813 50.8893 128.135C50.7837 127.457 50.4152 126.85 49.8648 126.446C49.3144 126.042 48.6272 125.875 47.9544 125.981C37.4184 127.641 30.1136 126.373 27.9009 122.512C25.9844 119.174 27.5676 112.926 33.8725 104.626C38.252 109.92 43.1155 114.787 48.3988 119.164C48.8591 119.557 49.4434 119.772 50.0468 119.77C50.5748 119.772 51.0905 119.61 51.5234 119.305C51.9563 119.001 52.2854 118.569 52.4657 118.069C52.646 117.57 52.6687 117.026 52.5307 116.512C52.3927 115.999 52.1008 115.541 51.6948 115.201V115.164ZM59.1477 86.9087C58.8098 86.9063 58.4748 86.9713 58.162 87.1001C57.8492 87.229 57.5649 87.419 57.3256 87.6592C57.0862 87.8994 56.8965 88.1851 56.7675 88.4997C56.6385 88.8142 56.5727 89.1514 56.5739 89.4918V89.986C56.5739 97.0172 56.9072 103.974 57.5553 110.697C57.6173 111.337 57.913 111.931 58.3852 112.363C58.8574 112.796 59.4723 113.036 60.1106 113.038H60.3605C61.0323 112.969 61.6505 112.638 62.0817 112.114C62.5129 111.591 62.7227 110.918 62.6659 110.24C62.0363 103.713 61.74 96.8866 61.74 90.0233V89.5477C61.7475 89.2019 61.6857 88.8581 61.5584 88.5369C61.431 88.2156 61.2406 87.9236 60.9986 87.6781C60.7567 87.4326 60.468 87.2388 60.15 87.1082C59.832 86.9776 59.4911 86.913 59.1477 86.9181V86.9087ZM97.6993 106.799C90.3664 110.94 82.7916 114.63 75.0164 117.849C74.4664 118.078 74.0119 118.491 73.7303 119.019C73.4488 119.547 73.3575 120.157 73.4721 120.745C73.5867 121.333 73.9001 121.863 74.3589 122.245C74.8177 122.627 75.3936 122.836 75.9886 122.838C76.3221 122.837 76.6521 122.77 76.9607 122.643C84.9254 119.342 92.6856 115.562 100.199 111.322C100.754 110.967 101.153 110.413 101.315 109.771C101.477 109.13 101.389 108.45 101.069 107.872C100.75 107.293 100.223 106.86 99.596 106.661C98.9694 106.461 98.2908 106.511 97.6993 106.799ZM156.564 47.6873C152.694 40.9452 142.297 39.1827 126.474 42.5957C120.582 43.904 114.788 45.624 109.133 47.7432C108.137 43.2971 106.876 38.9157 105.356 34.6228C100.005 19.8238 92.9868 12 85.0154 12C70.7391 12 62.0363 36.8888 58.6385 60.1829C58.5403 60.8618 58.7138 61.5522 59.121 62.1022C59.5281 62.6522 60.1355 63.0167 60.8096 63.1157C61.4836 63.2146 62.169 63.0398 62.7151 62.6297C63.2611 62.2196 63.6231 61.6078 63.7213 60.9289C67.4709 35.1636 76.2293 17.1754 85.0154 17.1754C90.4686 17.1754 96.1254 24.1786 100.486 36.3852C102.01 40.7102 103.265 45.1264 104.245 49.6082C94.7517 53.468 85.544 58.0053 76.6922 63.1856C75.1738 64.1181 73.6184 64.9947 72.063 65.9831C71.7749 66.1595 71.524 66.3913 71.3248 66.6652C71.1256 66.9392 70.9819 67.2501 70.902 67.58C70.822 67.9099 70.8074 68.2524 70.8589 68.5881C70.9103 68.9237 71.0269 69.2458 71.202 69.536C71.3771 69.8262 71.6072 70.0789 71.8792 70.2796C72.1513 70.4802 72.4599 70.6249 72.7874 70.7055C73.115 70.786 73.4551 70.8008 73.7883 70.7489C74.1215 70.697 74.4413 70.5796 74.7294 70.4033C76.2571 69.4707 77.7754 68.5382 79.2568 67.699C87.6298 62.7963 96.3286 58.4809 105.291 54.7837C107.159 65.2506 108.162 75.8553 108.291 86.4891C108.301 87.1677 108.575 87.8151 109.055 88.2915C109.535 88.7679 110.182 89.0349 110.855 89.0349H110.902C111.582 89.0202 112.229 88.7357 112.702 88.2434C113.175 87.751 113.437 87.0904 113.429 86.4052C113.293 75.1628 112.196 63.9531 110.152 52.9C132.187 44.6939 148.518 44.1157 152.073 50.3169C154.018 53.7113 152.305 59.5022 147.25 66.6079C141.75 74.2825 132.909 82.8709 121.651 91.2636C121.38 91.4662 121.152 91.7206 120.979 92.0121C120.806 92.3036 120.692 92.6266 120.643 92.9625C120.594 93.2985 120.611 93.6409 120.693 93.9702C120.776 94.2995 120.922 94.6092 121.123 94.8817C121.324 95.1542 121.577 95.3841 121.866 95.5582C122.155 95.7324 122.476 95.8475 122.81 95.8968C123.143 95.9462 123.483 95.9289 123.81 95.8459C124.137 95.7629 124.445 95.6159 124.715 95.4132C136.399 86.6476 145.63 77.6955 151.416 69.5733C155.879 63.2882 160.378 54.4293 156.564 47.6873ZM124.863 106.613C124.348 106.165 123.676 105.942 122.998 105.993C122.319 106.044 121.688 106.364 121.243 106.883C120.799 107.403 120.577 108.078 120.628 108.762C120.678 109.446 120.996 110.082 121.512 110.529C137.251 124.153 145.213 137.805 141.38 144.491C138.732 149.154 130.4 150.581 118.521 148.52C114.081 147.723 109.7 146.617 105.411 145.209C108.66 135.642 110.861 125.745 111.976 115.695C112.059 115.015 111.871 114.33 111.453 113.789C111.034 113.249 110.42 112.898 109.744 112.814C109.069 112.73 108.388 112.919 107.852 113.341C107.315 113.762 106.967 114.381 106.884 115.061C105.81 124.758 103.686 134.308 100.551 143.54C91.7217 140.238 83.1886 136.182 75.0442 131.418C74.457 131.121 73.7797 131.062 73.1508 131.253C72.5219 131.443 71.989 131.869 71.6613 132.442C71.3336 133.015 71.2358 133.693 71.3879 134.336C71.54 134.98 71.9306 135.54 72.4797 135.903C80.8359 140.788 89.5886 144.949 98.6437 148.343C98.3659 148.977 98.0882 149.592 97.8012 150.208C93.9127 158.349 89.3854 162.825 85.0617 162.825C78.8031 162.825 72.3686 153.649 67.8598 138.281C67.7637 137.955 67.6049 137.652 67.3924 137.388C67.1799 137.124 66.9179 136.905 66.6213 136.743C66.3247 136.581 65.9993 136.479 65.6638 136.444C65.3282 136.409 64.9891 136.44 64.6657 136.537C64.3423 136.634 64.0409 136.794 63.7789 137.008C63.5169 137.222 63.2992 137.486 63.1385 137.784C62.9777 138.083 62.8769 138.411 62.8419 138.749C62.8069 139.087 62.8383 139.428 62.9343 139.754C68.2856 157.966 76.146 168 85.0617 168C91.5425 168 97.5604 162.619 102.43 152.455C102.801 151.681 103.162 150.87 103.514 150.049C108.136 151.58 112.86 152.779 117.651 153.639C121.059 154.245 124.513 154.557 127.974 154.572C136.788 154.572 142.991 152.007 145.824 147.056C151.129 137.749 143.287 122.624 124.817 106.613H124.863ZM101.014 89.5664L99.3936 88.6339C91.7125 84.1425 83.6988 80.2548 75.4238 77.0054C74.7969 76.7982 74.115 76.8413 73.5188 77.1259C72.9226 77.4105 72.4576 77.9148 72.22 78.5348C71.9823 79.1547 71.9901 79.8429 72.2418 80.4572C72.4934 81.0715 72.9696 81.565 73.5722 81.8359C81.5974 84.9872 89.367 88.7628 96.8105 93.1286L98.3844 94.0611C98.7782 94.3006 99.2298 94.4264 99.6899 94.4248C100.271 94.451 100.843 94.2775 101.314 93.9329C101.784 93.5882 102.124 93.0928 102.278 92.528C102.432 91.9631 102.39 91.3624 102.161 90.8242C101.931 90.2861 101.527 89.8426 101.014 89.5664ZM69.0078 124.834C69.0078 123.497 68.6141 122.19 67.8766 121.078C67.139 119.966 66.0907 119.1 64.8642 118.588C63.6377 118.076 62.2881 117.942 60.986 118.203C59.684 118.464 58.488 119.108 57.5492 120.053C56.6105 120.999 55.9712 122.204 55.7122 123.515C55.4532 124.827 55.5862 126.186 56.0942 127.421C56.6022 128.657 57.4626 129.712 58.5664 130.455C59.6702 131.198 60.968 131.595 62.2955 131.595C64.0757 131.595 65.783 130.882 67.0418 129.615C68.3006 128.347 69.0078 126.627 69.0078 124.834ZM117.605 100.962C117.607 99.6223 117.214 98.3125 116.476 97.1979C115.739 96.0834 114.69 95.2142 113.462 94.7003C112.234 94.1865 110.882 94.0511 109.578 94.3113C108.273 94.5714 107.075 95.2155 106.134 96.1619C105.193 97.1084 104.552 98.3146 104.291 99.6282C104.031 100.942 104.164 102.303 104.672 103.541C105.181 104.779 106.042 105.836 107.148 106.581C108.253 107.325 109.553 107.722 110.883 107.722C111.767 107.722 112.643 107.547 113.46 107.205C114.276 106.864 115.018 106.364 115.643 105.733C116.267 105.102 116.762 104.354 117.098 103.53C117.435 102.707 117.607 101.824 117.605 100.934V100.962Z" fill="url(#paint1_linear_24_76)"/>
<defs>
<linearGradient id="paint0_linear_24_76" x1="90" y1="0" x2="90" y2="180" gradientUnits="userSpaceOnUse">
<stop offset="1" stop-color="#171C32"/>
</linearGradient>
<linearGradient id="paint1_linear_24_76" x1="22.0034" y1="89.986" x2="157.98" y2="89.986" gradientUnits="userSpaceOnUse">
<stop offset="0.02" stop-color="#2ABCF1"/>
<stop offset="1" stop-color="#6A4DE3"/>
</linearGradient>
</defs>
</svg>
